# xmcd
#
# Track frame offsets:
#	150
#	21802
#	40167
#	61876
#	82497
#	107355
#	126272
#	147346
#	168495
#	193329
#	211580
#	235599
#	254263
#	271769
#	290572
#	311242
# Disc length: 4388 seconds
# Revision: 1
# Processed by: cddbd v1.5.2PL0 Copyright (c) Steve Scherf et al.
#
# Submitted via: libkcddb 0.31
#
DISCID=e9112210
DTITLE=CELINE DION - ALL THE WAY.. A DECADE OF SONG
DYEAR=1998
DGENRE=LOVE SONGS
TTITLE0=THE POWER OF LOVE  -  CELINE DION
TTITLE1=BEAUTY AND THE BEAST  -  CELINE DION
TTITLE2=THINK TWICE  -  CELINE DION
TTITLE3=BECAUSE YOU LOVED ME  (Theme from Up Close and Personal)
TTITLE4=IT'S ALL COMING BACK TO ME  -  CELINE DION
TTITLE5=IMMORTALITY  -  CELINE DION
TTITLE6=TO LOVE YOU MORE  -  CELINE DION
TTITLE7=MY HEART WILL GO ON  -  CELINE DION
TTITLE8=I'M YOUR ANGEL  -  CELINE DION
TTITLE9=THAT'S THE WAY IT IS  -  CELINE DION
TTITLE10=IF FALLS COULD TALK  -  CELINE DION
TTITLE11=THE FIRST TIME I EVER SAW YOUR FACE  -  CELINE DION
TTITLE12=ALL THE WAY  -  CELINE DION and FRANK SINATRA
TTITLE13=THEN YOU LOOK AT ME  -  CELINE DION
TTITLE14=I WANT YOU TO NEED ME  -  CELINE DION
TTITLE15=LIVE FOR THE ONE I LOVE  -  CELINE DION
EXTD=
EXTT0=
EXTT1=
EXTT2=
EXTT3=
EXTT4=
EXTT5=
EXTT6=
EXTT7=
EXTT8=
EXTT9=
EXTT10=
EXTT11=
EXTT12=
EXTT13=
EXTT14=
EXTT15=
PLAYORDER=
